<svg width="48" height="54" viewBox="0 0 48 54" id="icon-direction" xmlns="http://www.w3.org/2000/svg">
    <path clip-rule="evenodd"
          d="M21.7659 0.229305C20.6299 0.508921 19.0312 1.29839 18.0932 2.04324C17.188 2.76189 16.2103 3.93788 15.7373 4.87675C15.4048 5.53662 5.33987 28.1804 1.97163 35.8462C1.22581 37.5437 0.494492 39.4049 0.346503 39.9822C-1.0781 45.5413 2.01742 51.3528 7.29488 53.0274C8.28439 53.3413 10.3614 53.4584 11.3849 53.2579C12.5143 53.0365 13.9275 52.4541 14.8258 51.8396C15.2524 51.5478 16.9298 50.0683 18.5535 48.5518C22.0058 45.3272 22.607 44.9256 23.9719 44.9323C25.408 44.9392 25.7862 45.1833 29.0477 48.2092C30.6379 49.6845 32.2562 51.1389 32.6439 51.4412C35.4215 53.6071 39.0761 53.9778 42.1941 52.4097C44.566 51.2169 46.5196 48.9275 47.3964 46.3134C48.362 43.4343 48.1781 40.8273 46.7793 37.566C45.5666 34.7388 32.5951 5.55517 32.2502 4.87825C31.7737 3.94277 30.8416 2.81604 29.9344 2.07858C28.9882 1.30954 27.2012 0.441367 26.0348 0.18406C24.8461 -0.0780097 22.9327 -0.0578312 21.7659 0.229305ZM25.8352 5.75608C26.2796 5.97416 26.7995 6.35692 27.0504 6.65057C27.3747 7.0302 29.3876 11.446 34.7751 23.5965C38.7826 32.6344 42.1889 40.3958 42.3449 40.8438C43.5066 44.1829 41.2483 48.0344 38.1265 48.0384C36.8629 48.0399 36.2593 47.6286 32.8102 44.4158C31.1822 42.8993 29.5039 41.4197 29.0807 41.128C26.1051 39.0763 21.9601 39.0806 18.9087 41.1386C18.4849 41.4246 16.8077 42.8993 15.1819 44.4158C11.7371 47.6288 11.1335 48.0399 9.86411 48.0384C6.7422 48.0344 4.48358 44.1822 5.64598 40.8438C6.25745 39.0877 20.5005 7.17697 20.8771 6.71913C22.0344 5.31265 24.1106 4.90921 25.8352 5.75608Z"/>
</svg>
