<svg width="48" height="65" viewBox="0 0 48 65" id="icon-droplet-percent" xmlns="http://www.w3.org/2000/svg">
    <path clip-rule="evenodd"
          d="M21.6811 0.80389C19.347 2.6398 10.8073 14.8002 6.42836 22.5232C1.78884 30.7053 -0.0325812 35.9057 0.000440326 40.8751C0.0672887 50.9378 6.67239 59.8802 16.388 63.0607C20.4947 64.4049 26.7172 64.5756 30.4616 63.4465C37.024 61.468 42.5865 56.9179 45.3551 51.264C46.7492 48.4169 48 43.4902 48 40.8461C48 36.3205 45.7453 29.9876 41.5262 22.6613C36.3716 13.7113 27.5025 1.29196 25.6694 0.456762C24.1222 -0.248368 22.8811 -0.140444 21.6811 0.80389ZM26.3339 10.2408C32.5282 18.4595 39.1563 29.8821 41.1291 35.7386C43.1346 41.6913 41.2266 48.7253 36.3297 53.4305C32.579 57.0347 26.4482 58.9153 21.2554 58.0547C13.1225 56.7069 7.29779 50.7654 6.08445 42.5789C5.66604 39.7584 5.7047 39.2172 6.51091 36.5621C7.6574 32.7876 10.645 26.8615 14.658 20.4017C18.6266 14.0133 23.8021 7.00871 24.2088 7.47544C24.3759 7.66753 25.3324 8.91188 26.3339 10.2408ZM15.5032 30.6477C13.5235 31.6238 13.6697 34.9364 15.7299 35.7898C18.5311 36.9503 21.0363 33.7255 19.1062 31.4442C18.2347 30.4145 16.6751 30.0698 15.5032 30.6477ZM22.7518 38.7194C15.6559 45.7876 14.1731 47.4596 14.1731 48.3931C14.1731 49.2126 14.455 49.6499 15.2024 49.9902C16.1939 50.442 16.5539 50.1368 25.0686 41.6289C29.9288 36.7724 33.9055 32.5082 33.9055 32.1534C33.9055 31.3882 32.6639 30.1745 31.8815 30.1745C31.5787 30.1745 27.4703 34.0199 22.7518 38.7194ZM29.5978 44.7422C27.6181 45.7184 27.7643 49.031 29.8245 49.8843C32.6257 51.0449 35.1309 47.8201 33.2007 45.5388C32.3293 44.509 30.7696 44.1643 29.5978 44.7422Z"/>
</svg>
