<svg width="48" height="49" viewBox="0 0 48 49" id="icon-droplet-degree" xmlns="http://www.w3.org/2000/svg">
    <path clip-rule="evenodd"
          d="M16.2334 0.601901C14.4858 1.97652 8.09184 11.0814 4.81314 16.8639C1.33937 22.9901 -0.0243947 26.8839 0.000329688 30.6046C0.0503815 38.1389 4.99586 44.8344 12.2703 47.2158C15.3451 48.2223 20.0042 48.3501 22.8077 47.5047C27.7212 46.0233 31.886 42.6165 33.959 38.3832C35.0028 36.2514 35.9393 32.5627 35.9393 30.5829C35.9393 27.1945 34.2511 22.4528 31.0921 16.9673C27.2327 10.2661 20.5921 0.96734 19.2196 0.341994C18.0612 -0.185962 17.1319 -0.105156 16.2334 0.601901ZM38.166 3.48169C32.7815 5.3915 31.4072 12.4189 35.6996 16.0929C36.9723 17.1826 39.1098 18.07 40.4612 18.07C44.3743 18.07 48 14.4448 48 10.5321C48 7.48101 45.6672 4.30362 42.8022 3.45304C40.9264 2.89584 39.7981 2.90278 38.166 3.48169ZM19.7171 7.66765C24.355 13.8213 29.3177 22.3738 30.7948 26.7588C32.2964 31.2158 30.8678 36.4824 27.2014 40.0053C24.393 42.7039 19.8027 44.112 15.9147 43.4676C9.82526 42.4585 5.46412 38.0099 4.55565 31.8804C4.24237 29.7685 4.27132 29.3633 4.87495 27.3754C5.73337 24.5493 7.97032 20.1122 10.9749 15.2755C13.9464 10.4923 17.8215 5.24767 18.126 5.59713C18.2511 5.74095 18.9672 6.67264 19.7171 7.66765ZM42.5959 8.39822C43.287 9.0896 43.4772 9.54971 43.4772 10.5321C43.4772 13.8551 38.7835 14.7243 37.7502 11.5925C36.7272 8.4932 40.3216 6.12388 42.5959 8.39822Z"/>
</svg>
