<svg width="48" height="35" viewBox="0 0 48 35" id="icon-moonset" xmlns="http://www.w3.org/2000/svg">
    <path clip-rule="evenodd"
          d="M15.9198 0.0511524C11.539 0.43904 7.1756 2.63758 4.34888 5.88117C-0.874975 11.8754 -1.44998 20.4518 2.93455 26.9794C6.95303 32.9622 14.199 35.8592 21.233 34.2954C25.4794 33.3513 29.1706 30.9153 31.7035 27.3852C32.6977 25.9997 32.8412 25.2618 32.2994 24.3221C31.9365 23.6926 31.7243 23.5475 30.5771 23.1451C28.6898 22.4828 27.165 21.519 25.6888 20.0553C23.7172 18.1003 22.483 15.7318 22.0017 12.9794C21.7528 11.5559 21.8424 9.10552 22.1917 7.77856C22.5287 6.49904 22.9811 5.38038 23.5676 4.37665C23.9621 3.70157 24.0509 3.45418 24.0865 2.93099C24.1405 2.13821 23.8563 1.48929 23.2696 1.06658C22.2919 0.361971 18.4323 -0.171297 15.9198 0.0511524ZM38.3808 2.37206C37.8621 2.61355 37.3499 3.18917 37.211 3.6867C37.1445 3.92493 37.1035 5.59936 37.1032 8.08836L37.1026 12.1055L35.5386 10.5613C34.6027 9.63706 33.8233 8.95403 33.5976 8.86026C32.4267 8.37352 30.9722 9.06093 30.6494 10.2537C30.5198 10.7322 30.5804 11.4238 30.7861 11.8142C31.0159 12.2507 38.0473 19.2003 38.4215 19.3608C38.8858 19.56 39.7671 19.5496 40.1891 19.3398C40.6715 19.1 47.505 12.3097 47.7682 11.8086C48.4531 10.505 47.5407 8.84713 46.0717 8.72598C45.1036 8.64606 44.8808 8.78106 43.1199 10.5141L41.5136 12.0952L41.4826 7.93045L41.4517 3.76581L41.1958 3.31215C40.8098 2.6278 40.2107 2.2557 39.4285 2.21457C38.9637 2.19023 38.6799 2.23289 38.3808 2.37206ZM18.6828 4.37085C18.6828 4.39569 18.5471 4.81941 18.3813 5.31257C16.47 10.9967 17.6239 17.234 21.4476 21.8876C22.1232 22.7098 23.4987 24.0376 24.3129 24.6536C24.8427 25.0545 26.5293 26.1399 26.7969 26.2522C26.972 26.3257 25.5855 27.6256 24.7436 28.1773C23.3343 29.1011 21.6876 29.7855 20.0131 30.1436C18.7969 30.4036 16.1017 30.4074 14.9202 30.1509C9.60354 28.9963 5.72709 25.139 4.58926 19.871C4.33875 18.711 4.33875 16.0033 4.58926 14.8433C5.29187 11.5903 7.07061 8.79999 9.659 6.89069C11.2089 5.74739 13.3865 4.82084 15.2035 4.5314C15.6256 4.46421 16.04 4.39579 16.1245 4.3793C16.3783 4.32982 18.6828 4.32219 18.6828 4.37085Z"
    />
</svg>
