<svg width="48" height="35" viewBox="0 0 48 35" id="icon-moonrise" xmlns="http://www.w3.org/2000/svg">
    <path clip-rule="evenodd"
          d="M15.9909 0.0477723C9.95905 0.535103 4.47533 4.25002 1.81227 9.65295C-0.604091 14.5553 -0.604091 20.1036 1.81227 25.0059C3.11897 27.6569 5.20139 30.0294 7.67377 31.6837C15.6314 37.008 26.4467 34.9772 31.8655 27.1411C32.7715 25.8308 32.8462 24.8262 32.1003 23.9827C31.7317 23.5658 31.4801 23.4245 30.4585 23.0602C27.0534 21.8462 24.2977 19.2218 22.8505 15.8148C22.2236 14.3389 21.9656 13.0975 21.9081 11.2798C21.8278 8.73472 22.2164 7.0284 23.4123 4.67634C23.9271 3.66376 24.0298 3.37541 24.0298 2.94237C24.0298 2.28402 23.6441 1.48628 23.1421 1.10601C22.1542 0.357883 18.622 -0.164831 15.9909 0.0477723ZM38.4178 2.37441C38.147 2.50018 36.7882 3.78353 34.4101 6.15959C30.498 10.0684 30.5186 10.0416 30.6064 11.0914C30.6969 12.1761 31.607 12.9918 32.7257 12.9908C33.0667 12.9904 33.4422 12.918 33.6559 12.8112C33.8531 12.7128 34.7172 11.9395 35.576 11.093L37.1377 9.55372L37.1383 13.5687C37.1386 16.0854 37.1794 17.7286 37.2475 17.9721C37.3073 18.1858 37.5173 18.5377 37.7143 18.7541C38.712 19.8507 40.4996 19.6411 41.2339 18.3417L41.49 17.8887L41.521 13.7266L41.5519 9.56439L43.1083 11.1046C44.7295 12.7089 45.0962 12.9574 45.8422 12.9574C47.402 12.9574 48.4718 11.2589 47.7911 9.86291C47.6604 9.59479 46.337 8.21313 44.0277 5.93377C41.024 2.96901 40.3998 2.39942 40.0444 2.29897C39.444 2.12917 38.8907 2.15489 38.4178 2.37441ZM18.6447 4.4246C18.6771 4.45693 18.5641 4.89159 18.3935 5.39051C18.223 5.88943 17.9617 6.86959 17.8131 7.5686C17.5776 8.67514 17.5418 9.08936 17.5355 10.7714C17.5259 13.3681 17.8465 15.0751 18.7758 17.3761C20.1941 20.8879 23.0494 24.1086 26.3594 25.9302C26.6551 26.093 26.8969 26.2554 26.897 26.2913C26.8973 26.4155 25.6411 27.5106 24.9136 28.0206C23.529 28.9912 21.8379 29.7109 20.0122 30.1066C18.8298 30.3628 16.1328 30.359 14.9157 30.0993C9.63688 28.9728 5.76308 25.1203 4.60754 19.8477C4.35029 18.6738 4.35029 15.9851 4.60754 14.8112C5.49806 10.7476 8.02389 7.48482 11.6899 5.66209C12.6772 5.1712 14.1762 4.68682 15.2229 4.52037C15.6453 4.45327 16.0601 4.38301 16.1446 4.3643C16.3972 4.30838 18.581 4.36105 18.6447 4.4246Z"
    />
</svg>
