<svg width="48" height="48" viewBox="0 0 48 48" id="icon-pressure-gauge" xmlns="http://www.w3.org/2000/svg">
    <path clip-rule="evenodd"
          d="M20.8468 0.164549C11.2035 1.45086 3.15615 8.60535 0.749656 18.0316C-1.80708 28.0468 2.31066 38.4947 11.0482 44.1625C16.5731 47.7464 23.499 48.8685 29.9418 47.2238C38.3912 45.0668 45.0939 38.364 47.2509 29.9146C49.3503 21.691 46.9696 13.036 40.9535 7.01991C37.1785 3.24477 32.3 0.837156 27.059 0.162522C25.3687 -0.0549598 22.4858 -0.0540591 20.8468 0.164549ZM27.2812 5.04477C33.0913 6.03803 38.3319 9.89977 41.0594 15.1977C44.9091 22.6755 43.5162 31.5633 37.5584 37.5385C32.992 42.1181 26.3917 44.0974 20.0793 42.78C14.4842 41.6123 9.5744 37.8635 6.94119 32.7486C4.06223 27.1563 4.06223 20.79 6.94119 15.1977C9.90642 9.438 15.5633 5.57986 22.142 4.83044C23.4115 4.68583 25.7529 4.78348 27.2812 5.04477ZM22.1572 9.68477C18.8813 10.1054 15.8796 11.6525 13.5368 14.1273C11.1769 16.6204 9.85417 19.6732 9.6261 23.1531C9.54467 24.395 9.65088 24.9065 10.1208 25.5352C10.7602 26.3908 12.4192 26.6154 13.384 25.9769C14.0596 25.5298 14.3037 24.9247 14.4292 23.3855C14.5872 21.4458 15.0859 20.012 16.1258 18.5078C17.7769 16.1193 20.3773 14.6493 23.3852 14.4042C24.9538 14.2763 25.5545 14.0361 26.004 13.3568C26.4146 12.7366 26.4879 11.612 26.1654 10.883C25.6451 9.70662 24.5457 9.37797 22.1572 9.68477ZM32.9541 12.0557C32.5758 12.1565 31.9263 12.749 28.8996 15.7543L25.2955 19.3329L24.6437 19.2407C22.0808 18.878 19.6828 20.6798 19.2636 23.2832C18.8561 25.813 20.7459 28.339 23.3182 28.7026C26.4303 29.1425 29.1705 26.4233 28.7328 23.3297L28.6405 22.6779L32.2174 19.0739C35.5033 15.7631 35.8047 15.4271 35.9219 14.9447C36.3491 13.1875 34.7067 11.5887 32.9541 12.0557Z"
    />
    <path d="M19.2 34.08C19.2 33.2847 19.8447 32.64 20.64 32.64H27.36C28.1553 32.64 28.8 33.2847 28.8 34.08C28.8 34.8753 28.1553 35.52 27.36 35.52H20.64C19.8447 35.52 19.2 34.8753 19.2 34.08Z"
    />
</svg>
