<svg width="48" height="43" viewBox="0 0 48 43" id="icon-sunrise" xmlns="http://www.w3.org/2000/svg">
    <path clip-rule="evenodd"
          d="M19.4363 3.80612C17.3247 5.89947 15.5257 7.8379 15.4383 8.11341C15.0055 9.47726 16.3018 10.937 17.6461 10.5999C18.039 10.5013 19.1855 9.62385 20.1939 8.65021L22.0276 6.88008V12.0337C22.0276 15.1537 22.1399 17.3969 22.3119 17.7185C23.0468 19.0917 25.2372 18.8607 25.7622 17.3546C25.9232 16.8928 26.0476 14.4312 26.0476 11.7067V6.8774L28.0289 8.79868C29.1189 9.8554 30.1986 10.72 30.4283 10.72C31.8616 10.72 32.9001 9.32959 32.4311 8.03864C32.14 7.23732 25.9522 0.929421 24.922 0.383507C24.5237 0.172591 23.9904 0 23.7366 0C23.4828 0 21.5476 1.71278 19.4363 3.80612ZM14.8717 19.1627C14.1463 19.6709 13.9029 20.4711 13.1606 24.7899C12.8312 26.7061 12.4782 28.3707 12.3761 28.4891C12.274 28.6073 10.394 29.0458 8.19803 29.4633C3.45632 30.3651 3.36011 30.3997 2.85064 31.3849C2.3385 32.3751 2.61427 33.0167 4.99785 36.3809L6.75432 38.8599H4.21958C2.82545 38.8599 1.38362 38.9971 1.01565 39.1649C-0.364812 39.7939 -0.329704 42.0099 1.07006 42.5896C1.58863 42.8043 8.19803 42.8689 24.3964 42.8174L46.999 42.7459L47.5114 42.1131C48.1629 41.3083 48.1629 40.4314 47.5114 39.6266C47.0461 39.052 46.7374 38.9816 44.1458 38.8599L41.2927 38.7259L43.3164 35.7779C45.4724 32.6369 45.7099 31.8501 44.7971 30.8706C44.4966 30.5479 44.2252 30.2828 44.1941 30.2818C43.8918 30.2705 35.6074 28.6773 35.5495 28.6191C35.5069 28.5765 35.1336 26.6724 34.7203 24.3877C34.0667 20.7756 33.8742 20.138 33.2447 19.4969C32.8465 19.0917 32.3005 18.7586 32.0312 18.7567C31.7619 18.7551 29.8331 19.9118 27.7448 21.3271L23.9481 23.901L20.2009 21.3303C18.14 19.9166 16.2273 18.7599 15.9504 18.7599C15.6733 18.7599 15.188 18.9411 14.8717 19.1627ZM31.2961 27.7599C31.7144 29.8495 32.1687 31.4076 32.442 31.6901C32.7328 31.9908 34.1631 32.4121 36.4406 32.8682L39.9865 33.5784L39.5159 34.2822C39.2573 34.6695 38.4517 35.8628 37.7256 36.9346L36.4055 38.8829L34.8061 38.8044L33.2066 38.7259L32.8743 37.5965C32.1566 35.1583 30.3342 32.9733 28.0541 31.8174C25.7187 30.6331 22.3028 30.6712 19.8279 31.9088C17.53 33.0577 15.4412 35.6586 14.9347 38.0009L14.7436 38.8843L13.0928 38.8049L11.4416 38.7259L9.7401 36.2287C8.80424 34.8552 8.09485 33.6754 8.16346 33.6068C8.23207 33.538 9.83792 33.1842 11.7319 32.8205C13.6258 32.4566 15.3389 31.9954 15.5388 31.7954C15.739 31.5955 16.2085 29.8771 16.5824 27.977C16.9562 26.0766 17.3121 24.4689 17.3735 24.4037C17.4346 24.3386 18.7735 25.1729 20.3491 26.2575C22.2045 27.5345 23.4732 28.2292 23.9502 28.2292C24.4208 28.2292 25.667 27.56 27.402 26.3757C28.8956 25.3559 30.1788 24.4236 30.2536 24.303C30.4937 23.916 30.5904 24.2373 31.2961 27.7599ZM25.9854 35.2548C27.252 35.7838 28.109 36.5875 28.7592 37.8549L29.2746 38.8599H24.0429C21.1657 38.8599 18.8116 38.7937 18.8116 38.7125C18.8116 37.8884 20.8739 35.5973 22.0276 35.1395C23.042 34.7373 24.8745 34.7906 25.9854 35.2548Z"
    />
</svg>
