<svg width="48" height="43" viewBox="0 0 48 43" id="icon-sunset" xmlns="http://www.w3.org/2000/svg">
    <path clip-rule="evenodd"
          d="M23.184 0.233382C22.1466 0.651461 22.0276 1.31744 22.0276 6.70503V11.8739L20.3526 10.237C17.8618 7.80275 17.1138 7.53288 15.9856 8.66142C14.7163 9.9304 14.9765 10.4219 19.1461 14.6274C21.2464 16.7456 23.2231 18.5436 23.5394 18.623C23.8553 18.7023 24.4586 18.5846 24.8796 18.3619C25.9404 17.8005 32.1333 11.5049 32.4311 10.6848C32.9001 9.39386 31.8616 8.00348 30.4283 8.00348C30.1986 8.00348 29.1189 8.86805 28.0289 9.92477L26.0476 11.8461V7.01671C26.0476 1.80386 25.8535 0.741508 24.8156 0.26849C24.0451 -0.0825891 23.9725 -0.0841972 23.184 0.233382ZM14.8717 19.1263C14.1463 19.6344 13.9029 20.4346 13.1606 24.7534C12.8312 26.6696 12.4782 28.3342 12.3761 28.4526C12.274 28.5708 10.394 29.0093 8.19803 29.4268C3.45632 30.3286 3.36011 30.3632 2.85064 31.3484C2.3385 32.3386 2.61427 32.9802 4.99785 36.3444L6.75432 38.8234H4.21958C2.82545 38.8234 1.38362 38.9606 1.01565 39.1284C-0.364812 39.7574 -0.329704 41.9735 1.07006 42.5531C1.58863 42.7678 8.19803 42.8324 24.3964 42.7809L46.999 42.7094L47.5114 42.0766C48.1629 41.2718 48.1629 40.3949 47.5114 39.5901C47.0461 39.0155 46.7374 38.9451 44.1458 38.8234L41.2927 38.6894L43.3164 35.7414C45.4724 32.6004 45.7099 31.8136 44.7971 30.8341C44.4966 30.5114 44.2252 30.2463 44.1941 30.2453C43.8918 30.234 35.6074 28.6408 35.5495 28.5826C35.5069 28.54 35.1336 26.6359 34.7203 24.3512C34.0667 20.7391 33.8742 20.1015 33.2447 19.4604C32.8465 19.0552 32.3005 18.7221 32.0312 18.7202C31.7619 18.7186 29.8331 19.8753 27.7448 21.2906L23.9481 23.8645L20.2009 21.2938C18.14 19.8801 16.2273 18.7235 15.9504 18.7235C15.6733 18.7235 15.188 18.9046 14.8717 19.1263ZM31.2961 27.7234C31.7144 29.813 32.1687 31.3711 32.442 31.6536C32.7328 31.9543 34.1631 32.3756 36.4406 32.8317L39.9865 33.5419L39.5159 34.2457C39.2573 34.633 38.4517 35.8264 37.7256 36.8981L36.4055 38.8464L34.8061 38.7679L33.2066 38.6894L32.8743 37.56C32.1566 35.1218 30.3342 32.9368 28.0541 31.7809C25.7187 30.5966 22.3028 30.6347 19.8279 31.8723C17.53 33.0212 15.4412 35.6221 14.9347 37.9645L14.7436 38.8478L13.0928 38.7685L11.4416 38.6894L9.7401 36.1922C8.80424 34.8187 8.09485 33.6389 8.16346 33.5703C8.23207 33.5015 9.83792 33.1477 11.7319 32.784C13.6258 32.4201 15.3389 31.9589 15.5388 31.7589C15.739 31.559 16.2085 29.8406 16.5824 27.9405C16.9562 26.0401 17.3121 24.4324 17.3735 24.3672C17.4346 24.3021 18.7735 25.1364 20.3491 26.221C22.2045 27.498 23.4732 28.1927 23.9502 28.1927C24.4208 28.1927 25.667 27.5235 27.402 26.3392C28.8956 25.3194 30.1788 24.3871 30.2536 24.2665C30.4937 23.8795 30.5904 24.2008 31.2961 27.7234ZM25.9854 35.2183C27.252 35.7473 28.109 36.551 28.7592 37.8184L29.2746 38.8234H24.0429C21.1657 38.8234 18.8116 38.7572 18.8116 38.676C18.8116 37.8519 20.8739 35.5608 22.0276 35.103C23.042 34.7008 24.8745 34.7541 25.9854 35.2183Z"
    />
</svg>
