<svg width="48" height="49" viewBox="0 0 48 49" id="icon-temperature-low" xmlns="http://www.w3.org/2000/svg">
    <path clip-rule="evenodd"
          d="M11.246 0.27548C8.41483 0.831514 5.46308 3.0846 4.1131 5.72033C3.02395 7.84647 2.77428 10.253 2.77187 18.6502C2.76945 26.3117 2.76614 26.3494 2.0328 27.4292C0.242573 30.0631 -0.503429 34.7475 0.357761 37.9453C1.23765 41.2136 3.42138 44.2516 6.11048 45.949C12.7916 50.1669 21.8368 47.741 25.2608 40.8129C27.4032 36.478 27.3628 32.2514 25.1408 28.294L24.0405 26.334L23.8834 17.1293L23.7263 7.92487L22.7336 5.9097C21.2425 2.88287 18.8046 0.989821 15.4946 0.288145C13.6953 -0.092998 13.1315 -0.0948072 11.246 0.27548ZM36.9432 0.221203C35.4856 0.595109 33.4186 1.91041 32.318 3.1642C30.7964 4.89714 30.1207 6.70576 30.1207 9.04568C30.1207 12.4787 32.0372 15.4337 35.3973 17.1818C37.2095 18.1244 40.6389 18.1467 42.6387 17.2291C45.6978 15.8254 48 12.2896 48 8.99563C48 5.70737 45.673 2.12812 42.6727 0.800758C41.1322 0.119284 38.412 -0.156019 36.9432 0.221203ZM15.6656 4.93935C17.0002 5.49689 18.0248 6.40723 18.7042 7.63871C19.1281 8.40733 19.2258 9.95301 19.354 17.9145L19.5048 27.2857L20.5921 29.0714C22.0042 31.3905 22.3694 32.5294 22.3694 34.6175C22.3694 36.9677 21.6466 38.8819 20.1166 40.5834C16.6193 44.4733 10.847 44.6946 7.12938 41.0819C5.18145 39.1882 4.45716 37.4378 4.45927 34.6263C4.46047 32.9187 4.61546 32.0692 5.09219 31.1586C5.43926 30.4952 6.07641 29.2848 6.50791 28.4692L7.29251 26.9856L7.29432 18.5185C7.29522 13.5404 7.42609 9.58151 7.61214 8.9121C8.53213 5.59912 12.5278 3.62827 15.6656 4.93935ZM41.0586 5.00087C42.5651 5.75742 43.4769 7.2642 43.4769 8.99563C43.4769 13.7225 37.091 15.2049 35.0339 10.9556C34.2761 9.39034 34.2755 8.60212 35.0315 7.04076C36.1258 4.78044 38.811 3.87131 41.0586 5.00087ZM12.4186 24.6755C11.9142 25.18 11.8156 25.6806 11.8156 27.7374V30.1958L10.6432 31.2804C8.53966 33.2262 8.45644 35.8505 10.4357 37.8298C12.8082 40.2023 16.8567 38.9678 17.735 35.6042C18.0984 34.2126 17.5378 32.7109 16.161 31.3899L14.8309 30.1135V27.5667C14.8309 25.6537 14.713 24.9023 14.3572 24.5462C13.7219 23.9112 13.1447 23.9494 12.4186 24.6755Z"
    />
</svg>
