<svg width="27" height="48" viewBox="0 0 27 48" id="icon-temperature-half" xmlns="http://www.w3.org/2000/svg">
    <path clip-rule="evenodd"
          d="M11.2343 0.275195C8.40612 0.830654 5.45743 3.08141 4.10885 5.71442C3.02082 7.83835 2.77141 10.2424 2.769 18.6309C2.76659 26.2845 2.76327 26.3221 2.0307 27.4008C0.242323 30.032 -0.502908 34.7115 0.35739 37.906C1.3668 41.6545 4.18807 45.1487 7.43558 46.6729C14.1405 49.8198 22.0658 47.1826 25.2467 40.7463C27.374 36.4418 27.3294 32.209 25.1148 28.2647L24.0156 26.3068L23.8587 17.1116L23.7017 7.91667L22.7101 5.90358C21.2205 2.87989 18.7851 0.988797 15.4786 0.287847C13.6812 -0.0929018 13.1179 -0.0947091 11.2343 0.275195ZM15.6494 4.93424C16.9826 5.49121 18.0062 6.40061 18.6848 7.63081C19.1083 8.39863 19.2059 9.94271 19.334 17.896L19.4846 27.2574L20.5708 29.0413C21.9814 31.358 22.3462 32.4957 22.3462 34.5817C22.3462 36.9295 21.6242 38.8416 20.0958 40.5414C16.6022 44.4272 10.8358 44.6483 7.122 41.0394C5.17609 39.1477 4.45254 37.3991 4.45465 34.5904C4.45586 32.8846 4.61069 32.0361 5.08692 31.1264C5.43363 30.4637 6.07012 29.2545 6.50118 28.4397L7.28496 26.9577L7.28677 18.4993C7.28767 13.5264 7.4184 9.5716 7.60426 8.90288C8.5233 5.59332 12.5148 3.62452 15.6494 4.93424ZM12.4058 17.7149C12.0338 17.9499 11.9374 19.0771 11.8606 24.0991L11.7672 30.198L10.6141 31.2646C8.53143 33.1913 8.45522 35.8209 10.4249 37.7907C12.795 40.1607 16.8392 38.9275 17.7167 35.5673C18.0797 34.1772 17.5197 32.6771 16.1443 31.3574L14.8156 30.0823V24.1129C14.8156 19.8717 14.7111 18.039 14.4541 17.7821C14.0231 17.351 13.0338 17.3185 12.4058 17.7149Z"
    />
</svg>
