<svg width="48" height="49" viewBox="0 0 48 49" id="icon-umbrella-simple" xmlns="http://www.w3.org/2000/svg">
    <path clip-rule="evenodd"
          d="M22.9299 0.249474C22.1 0.589212 21.3779 1.47411 21.1519 2.4289C20.9865 3.12601 20.7279 3.27005 19.0596 3.59429C14.4923 4.48192 10.5173 6.67928 6.97614 10.2733C3.25968 14.0453 1.36742 17.5348 0.337873 22.5127C-0.105184 24.6559 -0.108527 24.9866 0.304446 25.7226C1.22125 27.3556 0.568519 27.3146 24.349 27.2344L46.432 27.1596L47.216 26.423C47.8301 25.8459 48 25.3941 48 24.3396C48 21.0161 45.8172 15.7231 42.9908 12.1923C39.5457 7.88842 35.1881 5.11612 29.8468 3.82918C28.0998 3.40831 27.0383 3.00385 27.0359 2.75801C27.0274 1.86399 26.082 0.615954 25.1728 0.299006C24.0633 -0.0875294 23.7698 -0.0942148 22.9299 0.249474ZM20.9546 36.1134C20.9546 41.5 20.9164 41.8969 20.3669 42.191C19.3459 42.7374 18.8466 42.5439 17.4728 41.0691C16.2901 39.7992 15.9877 39.6324 14.8661 39.6324C12.2612 39.6324 11.3219 42.3111 13.0003 44.953C15.6446 49.115 21.3585 49.685 24.8312 46.1333C26.7387 44.1821 26.8709 43.5974 26.9733 36.6559L27.0663 30.3503H24.0105H20.9546V36.1134Z"
    />
</svg>
