<svg width="48" height="48" viewBox="0 0 48 48" id="icon-wind-sock" xmlns="http://www.w3.org/2000/svg">
    <path clip-rule="evenodd"
          d="M1.30327 0.207977C0.940668 0.38673 0.502184 0.940683 0.32853 1.43855C-0.111753 2.70152 -0.108454 45.0068 0.33213 46.2701C0.919674 47.9556 3.37092 48.2142 4.19331 46.6774C4.39515 46.3004 4.51152 43.1134 4.51152 37.9653V29.8476H8.23684H11.9618L12.1751 30.8179C12.6604 33.0274 13.9656 33.8675 16.2402 33.4344C16.9651 33.2964 24.0363 31.8277 31.9542 30.1709C45.9566 27.2413 46.3729 27.1339 47.1752 26.2492L48 25.3392V19.3504V13.3616L47.1752 12.4516C46.3729 11.5669 45.9566 11.4595 31.9542 8.52987C24.0363 6.87311 16.9651 5.4044 16.2402 5.26644C13.9656 4.83335 12.6604 5.67343 12.1751 7.88294L11.9618 8.85319H8.23684H4.51152V5.13747C4.51152 2.03479 4.42485 1.31918 3.98666 0.80122C3.33763 0.0343236 2.17604 -0.222409 1.30327 0.207977ZM22.5068 19.3504V27.6636L19.5075 28.2616L16.5083 28.8597V19.3504V9.84113L19.5075 10.4392L22.5068 11.0372V19.3504ZM31.2044 12.8616L34.3536 13.5466V19.3504V25.1542L31.2044 25.8392C29.4724 26.2162 27.8192 26.5299 27.5304 26.5365C27.0449 26.5476 27.0056 26.0104 27.0056 19.3504C27.0056 12.6904 27.0449 12.1532 27.5304 12.1643C27.8192 12.1709 29.4724 12.4846 31.2044 12.8616ZM12.0095 19.3504V25.3488H8.26053H4.51152V19.3504V13.352H8.26053H12.0095V19.3504ZM40.8019 14.8615C43.8335 15.524 43.5012 14.9713 43.5012 19.3504C43.5012 23.1366 43.4835 23.2419 42.8264 23.3912C40.9198 23.8243 39.4283 24.1353 39.2273 24.1419C39.1038 24.1458 39.0024 21.9897 39.0024 19.3504C39.0024 16.7111 39.1038 14.555 39.2273 14.5589C39.3509 14.5631 40.0596 14.6992 40.8019 14.8615Z"
    />
</svg>
