<svg width="48" height="49" viewBox="0 0 48 49" id="icon-wind" xmlns="http://www.w3.org/2000/svg">
    <path clip-rule="evenodd"
          d="M28.1972 0.261856C26.7551 0.999827 26.8086 3.43685 28.2816 4.10801C28.6994 4.29817 30.2657 4.45387 31.7628 4.45387C33.6288 4.45387 34.7691 4.6011 35.3898 4.92217C36.6795 5.58879 37.4752 7.04932 37.4764 8.7514C37.4773 9.91353 37.3056 10.3731 36.5459 11.2383C36.0232 11.8336 35.1271 12.4349 34.5052 12.6075C33.8162 12.7989 27.2609 12.9162 17.1932 12.9171C1.88118 12.9189 0.962721 12.9495 0.489888 13.4719C-0.186409 14.2189 -0.156479 16.0186 0.542492 16.6511C1.04314 17.1043 2.69594 17.1514 18.0234 17.1514C36.9425 17.1514 36.629 17.1829 39.0509 15.0509C42.713 11.8275 42.943 6.12723 39.5525 2.63328C37.6581 0.681481 36.1081 0.13095 32.187 0.0175785C30.1282 -0.0416769 28.6084 0.0511365 28.1972 0.261856ZM0.489888 22.5416C-0.186409 23.2886 -0.156479 25.0883 0.542492 25.7208C1.04465 26.1752 2.85345 26.2214 20.2691 26.223C32.3539 26.2239 39.8527 26.3384 40.5517 26.5325C41.1735 26.7052 42.0696 27.3065 42.5923 27.9018C44.2089 29.7429 43.7273 32.8088 41.6198 34.0936C40.8455 34.5659 40.0957 34.6841 37.8697 34.685C36.3394 34.6856 34.7476 34.841 34.3326 35.0302C33.399 35.4556 32.9404 36.6731 33.3065 37.7545C33.7255 38.9922 34.9287 39.3199 38.4665 39.1597C42.137 38.9937 43.7777 38.3833 45.5989 36.5068C48.9895 33.0128 48.7594 27.3125 45.0974 24.0892C42.6431 21.9291 43.3273 21.9886 20.9941 21.9886C1.99848 21.9886 0.96514 22.0164 0.489888 22.5416ZM0.489888 31.6113C-0.186409 32.3583 -0.156479 34.158 0.542492 34.7905C1.02349 35.2258 2.01299 35.2911 8.17615 35.2927C12.0704 35.2936 15.7557 35.4329 16.3658 35.6022C16.9877 35.7749 17.8838 36.3762 18.4065 36.9715C19.1662 37.8367 19.3379 38.2962 19.337 39.4584C19.3358 41.1605 18.5401 42.621 17.2504 43.2876C16.6297 43.6087 15.4894 43.7559 13.6234 43.7559C12.1263 43.7559 10.5618 43.9107 10.1467 44.0999C9.21312 44.5253 8.7545 45.7428 9.12061 46.8242C9.53963 48.0619 10.7429 48.3896 14.2807 48.2294C17.9512 48.0634 19.5919 47.453 21.4131 45.5765C24.8036 42.0825 24.5736 36.3822 20.9115 33.1589C18.6925 31.2059 17.8499 31.0583 8.90113 31.0583C1.62118 31.0583 0.950326 31.1025 0.489888 31.6113Z"
    />
</svg>
